<?xml version="1.0" encoding="UTF-8"?>
<svg xmlns="http://www.w3.org/2000/svg" xmlns:xlink="http://www.w3.org/1999/xlink" width="2160" height="2160" viewBox="0 0 2160 2160">
<rect x="-216" y="-216" width="2592" height="2592" fill="rgb(100%, 100%, 100%)" fill-opacity="1"/>
<path fill-rule="evenodd" fill="rgb(100%, 18.406677%, 0%)" fill-opacity="1" d="M 1324.761719 1583.625 C 1324.761719 1583.625 2019.078125 1815.394531 2069.828125 1843.8125 C 2069.828125 1843.8125 1868.949219 1746.152344 1831.128906 1736 C 1831.128906 1736 2021.109375 1779.90625 2141.679688 1806.046875 L 1741.628906 1648.578125 C 1741.628906 1648.578125 1822.179688 1700.972656 1854.660156 1715.179688 C 1854.660156 1715.179688 1528.96875 1632.734375 1324.761719 1583.625 "/>
<path fill-rule="evenodd" fill="rgb(100%, 18.406677%, 0%)" fill-opacity="1" d="M 0 1652.730469 C 0 1652.730469 427.792969 1834.152344 459.058594 1854.480469 C 459.058594 1854.480469 335.296875 1783.136719 311.992188 1774.78125 C 311.992188 1774.78125 429.042969 1812.398438 503.332031 1835.207031 L 256.851562 1715.945312 C 256.851562 1715.945312 306.476562 1752.703125 326.488281 1763.265625 C 326.488281 1763.265625 125.828125 1694.347656 0 1652.730469 "/>
<path fill-rule="evenodd" fill="rgb(100%, 18.406677%, 0%)" fill-opacity="1" d="M 2157.070312 1872.140625 C 2157.070312 1872.140625 2051.761719 1827.933594 2002.03125 1803.992188 C 1952.308594 1780.050781 1823.371094 1743.207031 1823.371094 1743.207031 C 1823.371094 1743.207031 1998.351562 1822.410156 2057.289062 1857.402344 C 2057.289062 1857.402344 1845.480469 1794.78125 1745.101562 1765.3125 C 1644.71875 1735.84375 1416.328125 1675.058594 1416.328125 1675.058594 C 1416.328125 1675.058594 1691.820312 1774.523438 1792.589844 1820.570312 C 1893.359375 1866.613281 2037.019531 1903.457031 2092.28125 1932.925781 C 2092.28125 1932.925781 2053.601562 1899.296875 2035.191406 1884.800781 C 2035.191406 1884.800781 2109.5 1901.609375 2157.070312 1929.238281 L 2157.070312 1872.140625 "/>
<path fill-rule="evenodd" fill="rgb(100%, 18.406677%, 0%)" fill-opacity="1" d="M 2157.070312 2064.273438 L 1155.921875 1680.101562 C 1155.921875 1680.101562 1204.988281 1703.628906 1239.488281 1727.144531 C 1239.488281 1727.144531 1140.699219 1697.355469 1095.230469 1692.652344 C 1095.230469 1692.652344 1308.480469 1766.34375 1391.578125 1803.976562 C 1391.578125 1803.976562 1341.410156 1771.054688 1294.371094 1749.101562 L 1793.011719 1948.238281 C 1793.011719 1948.238281 1635.859375 1894.320312 1554.640625 1872.175781 L 2007.828125 2047.027344 L 1277.121094 1818.089844 C 1277.121094 1818.089844 1386.878906 1866.699219 1449.609375 1894.925781 C 1449.609375 1894.925781 888.394531 1704.4375 673.761719 1635.828125 C 673.761719 1635.828125 757.855469 1684.878906 790.46875 1695.773438 C 790.46875 1695.773438 617.628906 1638.566406 528.066406 1606.609375 C 528.066406 1606.609375 642.359375 1662.765625 777.703125 1714.839844 C 777.703125 1714.839844 403.910156 1608.175781 240.832031 1536.039062 C 240.832031 1536.039062 547.507812 1683.164062 643.160156 1706.683594 C 643.160156 1706.683594 434.609375 1659.636719 384.429688 1634.554688 C 384.429688 1634.554688 870.527344 1852.511719 1061.820312 1924.644531 C 1061.820312 1924.644531 832.894531 1811.898438 767.03125 1785.160156 C 767.03125 1785.160156 1093.191406 1902.691406 1181 1937.1875 C 1181 1937.1875 1043.011719 1866.625 889.34375 1805.464844 C 889.34375 1805.464844 1075.941406 1866.78125 1127.691406 1877.675781 C 1127.691406 1877.675781 895.617188 1766.425781 821.917969 1734.984375 C 821.917969 1734.984375 1115.140625 1822.875 1254.691406 1877.675781 C 1394.261719 1932.484375 1442.871094 1952.863281 1442.871094 1952.863281 C 1442.871094 1952.863281 1298.878906 1879.804688 1226.628906 1853.316406 L 1716.75 2021.503906 C 1716.75 2021.503906 1627.851562 1981.199219 1593.730469 1963.71875 L 1955 2073.203125 C 1955 2073.203125 1867.78125 2027.722656 1841.761719 2016.527344 L 2127 2113.839844 C 2127 2113.839844 2050.339844 2101.796875 2038.300781 2096.777344 C 2038.300781 2096.777344 2094.25 2124.199219 2157.070312 2157.578125 L 2157.070312 2109.816406 C 2157.070312 2109.816406 2090.628906 2083.753906 2052.269531 2059.453125 C 2052.269531 2059.453125 2098.179688 2076.597656 2157.070312 2096.777344 L 2157.070312 2064.273438 "/>
<path fill-rule="evenodd" fill="rgb(100%, 18.406677%, 0%)" fill-opacity="1" d="M 0 427.75 C 0 427.75 309.453125 566.5 410.851562 609.191406 C 410.851562 609.191406 351.265625 591.699219 265.839844 562.359375 C 400.757812 622.320312 551.691406 688.941406 627.140625 720.710938 C 627.140625 720.710938 302.113281 625.269531 0 492.761719 L 0 427.75 "/>
<path fill-rule="evenodd" fill="rgb(100%, 18.406677%, 0%)" fill-opacity="1" d="M 1322.988281 1372.953125 C 1322.988281 1372.953125 1055.71875 1307.890625 1015.078125 1284.464844 C 1015.078125 1284.464844 1070.78125 1318.234375 1100.890625 1328.777344 C 1100.890625 1328.777344 987.984375 1308.066406 935.296875 1282.292969 C 882.609375 1256.519531 683.914062 1182.761719 683.914062 1182.761719 C 683.914062 1182.761719 744.121094 1222.65625 766.699219 1233.566406 C 766.699219 1233.566406 644.773438 1205.339844 595.101562 1175.230469 C 595.101562 1175.230469 736.597656 1255.011719 765.195312 1264.050781 L 671.871094 1233.566406 C 671.871094 1233.566406 810.355469 1303.1875 855.519531 1315.230469 C 900.675781 1327.273438 1164.109375 1440.171875 1246.898438 1468.773438 C 1246.898438 1468.773438 966.910156 1387.015625 887.128906 1372.953125 C 887.128906 1372.953125 1082.820312 1441.675781 1126.480469 1458.238281 C 1170.128906 1474.789062 1239.378906 1495.867188 1239.378906 1495.867188 C 1239.378906 1495.867188 1098.328125 1471.785156 1078.539062 1461.25 C 1078.539062 1461.25 1164.109375 1501.46875 1233.359375 1515.976562 C 1302.601562 1530.488281 1638.46875 1645.457031 1716.75 1659.007812 C 1716.75 1659.007812 1564.519531 1587.695312 1453.128906 1536.515625 C 1341.738281 1485.332031 1106.910156 1405.085938 1051.210938 1372.953125 C 995.515625 1340.820312 957.882812 1327.273438 957.882812 1327.273438 C 957.882812 1327.273438 1123.460938 1367.917969 1221.308594 1401.03125 C 1221.308594 1401.03125 1170.128906 1369.425781 1143.03125 1360.386719 C 1143.03125 1360.386719 1355.109375 1401.980469 1402.671875 1424.742188 C 1402.671875 1424.742188 1338.21875 1388.289062 1199.339844 1356.175781 C 1199.339844 1356.175781 1300.53125 1373.667969 1322.988281 1372.953125 "/>
<path fill-rule="evenodd" fill="rgb(100%, 18.406677%, 0%)" fill-opacity="1" d="M 2126.460938 1130.609375 L 878.347656 736.289062 C 878.347656 736.289062 950.25 779.679688 970 788.148438 C 970 788.148438 801.609375 752.558594 711.832031 739.550781 L 1273.730469 898.769531 C 1273.730469 898.769531 1050.910156 854.941406 1006.25 847.878906 C 1006.25 847.878906 1216.878906 930.640625 1288.371094 953.910156 C 1288.371094 953.910156 1239.46875 923.109375 1228.171875 915.121094 C 1228.171875 915.121094 1636.691406 1039.410156 1731.808594 1061.828125 C 1731.808594 1061.828125 1634.378906 1018.949219 1609.53125 1001.171875 L 2157.070312 1181.746094 L 2157.070312 1111.210938 C 2157.070312 1111.210938 1954.699219 1050.550781 1916.609375 1029.390625 C 1916.609375 1029.390625 2089.429688 1104.859375 2126.460938 1130.609375 "/>
<path fill-rule="evenodd" fill="rgb(100%, 18.406677%, 0%)" fill-opacity="1" d="M 2157.070312 1385.078125 C 2157.070312 1385.078125 1976.519531 1320.050781 1940.398438 1305.59375 C 1940.398438 1305.59375 2057.210938 1332.09375 2083.699219 1341.726562 C 2083.699219 1341.726562 1871.910156 1236.953125 1830.289062 1221.300781 C 1830.289062 1221.300781 1865.730469 1248.996094 1888.621094 1261.039062 C 1888.621094 1261.039062 1740.488281 1198.414062 1654.988281 1149.039062 C 1569.480469 1099.671875 1509.28125 1079.039062 1509.28125 1079.039062 C 1509.28125 1079.039062 1712.789062 1154.28125 1765.78125 1181.164062 C 1765.78125 1181.164062 1701.710938 1138.210938 1680.761719 1128.570312 C 1680.761719 1128.570312 1875.371094 1202.035156 1911.488281 1214.078125 C 1911.488281 1214.078125 1791.070312 1146.628906 1768.191406 1139.410156 C 1768.191406 1139.410156 2015.058594 1216.480469 2083.699219 1250.203125 C 2083.699219 1250.203125 1987.371094 1189.203125 1959.671875 1181.164062 C 1931.96875 1173.132812 1987.371094 1170.71875 2136.699219 1248.996094 C 2136.699219 1248.996094 2084.910156 1212.804688 2002.449219 1181.164062 C 2002.449219 1181.164062 2089.539062 1208.875 2121.910156 1225.054688 C 2154.269531 1241.238281 2157.070312 1234.308594 2157.070312 1234.308594 L 2157.070312 1323.710938 C 2157.070312 1323.710938 2028.640625 1280.554688 1992.429688 1258.199219 C 1992.429688 1258.199219 2103.410156 1318.320312 2133.46875 1328.339844 C 2133.46875 1328.339844 2091.851562 1322.9375 2074.121094 1316.003906 C 2074.121094 1316.003906 2122.101562 1343.75 2157.070312 1352.996094 L 2157.070312 1385.078125 "/>
<path fill-rule="evenodd" fill="rgb(100%, 18.406677%, 0%)" fill-opacity="1" d="M 2157.070312 1408.453125 C 2157.070312 1408.453125 1961.238281 1344.476562 1911.53125 1329.902344 C 1861.808594 1315.324219 1797.03125 1303.988281 1797.03125 1303.988281 C 1797.03125 1303.988281 2044.820312 1399.542969 2103.128906 1420.597656 C 2103.128906 1420.597656 1821.050781 1328.078125 1756.710938 1298.730469 C 1692.371094 1269.367188 1562.800781 1243.054688 1536.480469 1229.890625 C 1536.480469 1229.890625 1601.269531 1262.285156 1771.320312 1319.984375 C 1941.371094 1377.679688 2004.140625 1413.105469 2037.539062 1424.242188 L 2135.71875 1467.765625 C 2135.71875 1467.765625 2053.738281 1440.4375 2037.539062 1436.390625 C 2037.539062 1436.390625 2134.890625 1482.953125 2157.070312 1497.125 L 2157.070312 1408.453125 "/>
<path fill-rule="evenodd" fill="rgb(100%, 18.406677%, 0%)" fill-opacity="1" d="M 1389.648438 1370.632812 C 1389.648438 1370.632812 2096.109375 1612.359375 2157.070312 1644.949219 C 2157.070312 1644.949219 2125.371094 1610.628906 2104.53125 1599.261719 C 2083.691406 1587.894531 2144.25 1600.210938 2157.070312 1608.730469 L 2157.070312 1580.6875 C 2157.070312 1580.6875 1964.078125 1492.832031 1941.351562 1476.726562 C 1941.351562 1476.726562 2040.140625 1546.210938 2060.03125 1554.730469 L 1801.839844 1440.503906 C 1801.839844 1440.503906 1898.988281 1505.488281 1916.039062 1519.695312 C 1916.039062 1519.695312 1651.238281 1397.734375 1601.921875 1374.050781 C 1601.921875 1374.050781 1652.621094 1424.847656 1659.351562 1432.546875 C 1659.351562 1432.546875 1503.949219 1393.640625 1389.648438 1370.632812 "/>
<path fill-rule="evenodd" fill="rgb(100%, 18.406677%, 0%)" fill-opacity="1" d="M 2157.070312 273.800781 C 2157.070312 273.800781 2027.5 213.980469 2019.191406 211.960938 C 2019.191406 211.960938 2086.960938 256.089844 2128.679688 279.46875 C 2128.679688 279.46875 1879.390625 185.449219 1748.289062 125.691406 C 1748.289062 125.691406 1849.289062 161.191406 1900.929688 175.261719 C 1895.21875 174.140625 1796.019531 129.871094 1755.648438 105.691406 C 1755.648438 105.691406 2041.980469 208.691406 2054.929688 213 C 2054.929688 213 1689.019531 59.25 1657.21875 45.761719 C 1657.21875 45.761719 1911.570312 124.761719 1928.898438 129.570312 C 1928.898438 129.570312 1828.71875 90.078125 1798.851562 77.550781 C 1768.980469 65.03125 1654.339844 14.019531 1632.171875 0.511719 L 1694.800781 0.511719 C 1694.800781 0.511719 1795.570312 56.121094 1828.320312 64.789062 C 1828.320312 64.789062 1793.488281 43.75 1762.050781 20.628906 C 1762.050781 20.628906 2122.519531 164.320312 2138.699219 168.058594 C 2138.699219 168.058594 1954.550781 114.679688 1932.96875 106.121094 C 1932.96875 106.121094 2028.839844 153.460938 2045.011719 161.761719 C 2045.011719 161.761719 1979.960938 148.371094 1963.769531 140.671875 C 1963.769531 140.671875 2139.75 213.640625 2157.070312 217.949219 L 2157.070312 273.800781 "/>
<path fill-rule="evenodd" fill="rgb(100%, 18.406677%, 0%)" fill-opacity="1" d="M 2157.070312 143.25 C 2157.070312 143.25 2076.25 110.191406 2053.21875 99.769531 L 2099.488281 109.011719 L 1873.441406 0.511719 C 1873.441406 0.511719 2050.710938 70.160156 2073.148438 72.640625 C 2073.148438 72.640625 1983.769531 24.21875 1961.339844 13.929688 L 2127.089844 89.78125 C 2127.089844 89.78125 2088.28125 85.078125 2074.640625 82.339844 C 2074.640625 82.339844 2136.980469 103.011719 2144.339844 107.089844 C 2144.339844 107.089844 2122.949219 104.78125 2113.109375 102.101562 C 2113.109375 102.101562 2129.121094 109.640625 2157.070312 123.898438 L 2157.070312 143.25 "/>
<path fill-rule="evenodd" fill="rgb(100%, 18.406677%, 0%)" fill-opacity="1" d="M 141.765625 0.511719 C 141.765625 0.511719 257.640625 26.429688 433.394531 81.5 C 433.394531 81.5 347.734375 69.308594 302.164062 63.210938 L 670.296875 218.570312 C 670.296875 218.570312 327.339844 107.289062 267.710938 97.171875 C 267.710938 97.171875 285.753906 101.109375 331.53125 135.089844 L 125.621094 55.511719 C 125.621094 55.511719 238.71875 83.519531 295.273438 94.898438 L 53.894531 0.511719 L 141.765625 0.511719 "/>
<path fill-rule="evenodd" fill="rgb(100%, 18.406677%, 0%)" fill-opacity="1" d="M 2015.25 648.839844 C 2015.25 648.839844 997.761719 309.109375 917.820312 262.480469 C 917.820312 262.480469 984.503906 310.898438 1053.78125 341.75 C 1053.78125 341.75 912.269531 291.289062 788.253906 248.789062 C 788.253906 248.789062 863.359375 296.949219 912.84375 320.808594 L 221.332031 116.230469 C 221.332031 116.230469 817.789062 343.441406 975.566406 397.589844 C 975.566406 397.589844 901.832031 363.039062 828.664062 327.71875 C 828.664062 327.71875 1370.03125 497.511719 1431.148438 529.519531 C 1431.148438 529.519531 1358.390625 488.769531 1302.109375 458.691406 C 1302.109375 458.691406 1932.851562 636.210938 2015.25 648.839844 "/>
<path fill-rule="evenodd" fill="rgb(100%, 18.406677%, 0%)" fill-opacity="1" d="M 1975.109375 536.269531 L 1525.480469 312.261719 C 1525.480469 312.261719 1614.640625 361.089844 1659.140625 396.640625 C 1659.140625 396.640625 1433.359375 298.5 1395.578125 279.46875 C 1395.578125 279.46875 1493.339844 337.71875 1544.328125 360.921875 C 1544.328125 360.921875 1501.808594 350.039062 1479.371094 345.699219 C 1479.371094 345.699219 1930.03125 529.519531 1975.109375 536.269531 "/>
<path fill-rule="evenodd" fill="rgb(100%, 18.406677%, 0%)" fill-opacity="1" d="M 1307.390625 398.53125 L 808.101562 149.769531 C 808.101562 149.769531 907.101562 204 956.527344 243.460938 C 956.527344 243.460938 705.808594 134.480469 663.855469 113.359375 C 663.855469 113.359375 772.410156 178.039062 829.03125 203.800781 C 829.03125 203.800781 781.8125 191.71875 756.90625 186.898438 C 756.90625 186.898438 1257.328125 391.03125 1307.390625 398.53125 "/>
<path fill-rule="evenodd" fill="rgb(100%, 18.406677%, 0%)" fill-opacity="1" d="M 856.867188 559.980469 C 856.867188 559.980469 925.84375 579.910156 1014.21875 597.03125 C 1014.21875 597.03125 975.382812 570.589844 948.5625 551.671875 L 1171.929688 657.871094 L 856.867188 559.980469 "/>
<path fill-rule="evenodd" fill="rgb(100%, 18.406677%, 0%)" fill-opacity="1" d="M 929.570312 824.609375 C 929.570312 824.609375 877.109375 807.300781 809 791.820312 C 809 791.820312 836.9375 813.699219 856.160156 829.328125 L 690.644531 740.070312 L 929.570312 824.609375 "/>
<path fill-rule="evenodd" fill="rgb(100%, 18.406677%, 0%)" fill-opacity="1" d="M 431.722656 539.851562 C 431.722656 539.851562 503.882812 556.148438 595.109375 568.789062 C 595.109375 568.789062 552.226562 544.738281 522.515625 527.46875 L 762.382812 620.980469 L 431.722656 539.851562 "/>
<path fill-rule="evenodd" fill="rgb(100%, 18.406677%, 0%)" fill-opacity="1" d="M 1835.941406 1675.058594 C 1835.941406 1675.058594 1767.460938 1643.703125 1685.46875 1596.839844 C 1685.46875 1596.839844 1734.441406 1602.398438 1768.71875 1605.703125 L 1518.429688 1537.277344 L 1835.941406 1675.058594 "/>
<path fill-rule="evenodd" fill="rgb(100%, 18.406677%, 0%)" fill-opacity="1" d="M 1024.011719 1165.925781 C 1024.011719 1165.925781 1108.789062 1196.410156 1211.230469 1244.019531 C 1211.230469 1244.019531 1152.289062 1242.320312 1111.109375 1241.832031 L 1416.328125 1298.195312 L 1024.011719 1165.925781 "/>
<path fill-rule="evenodd" fill="rgb(100%, 18.406677%, 0%)" fill-opacity="1" d="M 541.554688 0.511719 C 541.554688 0.511719 613.742188 41.941406 643.011719 51.050781 C 643.011719 51.050781 614.390625 34.140625 603.339844 21.128906 C 603.339844 21.128906 695.679688 48.441406 742.5 67.949219 C 742.5 67.949219 706.082031 44.539062 691.777344 37.390625 C 691.777344 37.390625 778.351562 54.898438 897.03125 98.261719 C 1015.710938 141.609375 1102.109375 162.28125 1153.261719 180.160156 L 958 98.261719 C 958 98.261719 1031.019531 114.648438 1104.601562 131.660156 C 1104.601562 131.660156 1052.730469 109.898438 1026.160156 94.410156 C 1026.160156 94.410156 1146.050781 120.488281 1205.46875 136.398438 C 1205.46875 136.398438 874.996094 17.839844 819.84375 5.359375 C 819.84375 5.359375 903.613281 19.980469 975.914062 41.78125 C 1063.171875 68.078125 1759.699219 306.808594 1834.640625 323.320312 C 1834.640625 323.320312 1683.351562 268.941406 1650.058594 251.238281 C 1650.058594 251.238281 1773.320312 289.21875 1802.710938 297.828125 C 1802.710938 297.828125 1781.859375 286.328125 1757.148438 275.28125 L 2120.371094 395.808594 C 2120.371094 395.808594 2007.351562 345.871094 1904.121094 307.140625 C 1904.121094 307.140625 2111.261719 361.761719 2157.070312 390.378906 L 2157.070312 337.648438 C 2157.070312 337.648438 2086.511719 308.710938 2064.398438 303.511719 C 2042.300781 298.308594 1877.769531 216.160156 1783.480469 179.300781 C 1689.179688 142.449219 1526.609375 88.261719 1485.421875 66.589844 C 1444.238281 44.910156 1362.949219 14.640625 1344.519531 0.511719 L 1290.328125 0.511719 C 1290.328125 0.511719 1392.210938 42.738281 1451.828125 63.328125 C 1511.441406 83.929688 1605.730469 124.019531 1633.910156 138.109375 C 1662.089844 152.210938 1743.371094 194.820312 1813.828125 217.949219 C 1884.269531 241.078125 2006.96875 292.199219 2038.871094 305.378906 C 2038.871094 305.378906 1872.398438 249.890625 1846.03125 237.390625 C 1846.03125 237.390625 1936.210938 284.558594 1997.25 302.601562 L 1800.429688 245.199219 C 1800.429688 245.199219 1877.078125 278.160156 1918.390625 299.058594 C 1918.390625 299.058594 1744.070312 242.261719 1713.550781 224.910156 C 1713.550781 224.910156 1742.539062 245.300781 1763.070312 253.628906 C 1791.269531 265.058594 1710.910156 239.199219 1687.609375 231.429688 C 1687.609375 231.429688 1705.371094 244.191406 1719.789062 253.070312 C 1719.789062 253.070312 1616.199219 220.378906 1552.898438 192.640625 C 1489.601562 164.890625 1296.421875 112.078125 1254.800781 98.261719 C 1254.800781 98.261719 1377.578125 146.859375 1433.769531 171.140625 C 1433.769531 171.140625 1291.050781 129.171875 1229.308594 106.28125 C 1167.570312 83.390625 1137.75 74.371094 1137.75 74.371094 C 1137.75 74.371094 1202.128906 102.25 1214.640625 106.511719 C 1214.640625 106.511719 1136.300781 83.03125 1105.078125 69.859375 C 1073.871094 56.671875 960.246094 9.550781 940.132812 0.511719 L 541.554688 0.511719 "/>
<path fill-rule="evenodd" fill="rgb(100%, 18.406677%, 0%)" fill-opacity="1" d="M 1612.78125 140.671875 C 1612.78125 140.671875 1534.289062 106.070312 1521.03125 100.960938 C 1507.75 95.871094 1447.089844 70.53125 1388.460938 55.808594 C 1388.460938 55.808594 1589.929688 141.109375 1612.78125 140.671875 "/>
<path fill-rule="evenodd" fill="rgb(100%, 18.406677%, 0%)" fill-opacity="1" d="M 1349.320312 298.660156 C 1349.320312 298.660156 1205.839844 233.589844 1181.558594 223.96875 C 1157.289062 214.351562 1046.378906 166.648438 938.972656 138.480469 C 938.972656 138.480469 1307.339844 299.039062 1349.320312 298.660156 "/>
<path fill-rule="evenodd" fill="rgb(100%, 18.406677%, 0%)" fill-opacity="1" d="M 1330.828125 1130.28125 C 1330.828125 1130.28125 1437.109375 1173.558594 1455.050781 1179.871094 C 1472.988281 1186.179688 1555.078125 1217.746094 1634.058594 1235.199219 C 1634.058594 1235.199219 1361.371094 1128.820312 1330.828125 1130.28125 "/>
<path fill-rule="evenodd" fill="rgb(100%, 18.406677%, 0%)" fill-opacity="1" d="M 1593.980469 1128.628906 C 1593.980469 1128.628906 1469.738281 1072.28125 1448.71875 1063.949219 C 1427.699219 1055.628906 1331.671875 1014.308594 1238.671875 989.921875 C 1238.671875 989.921875 1557.628906 1128.941406 1593.980469 1128.628906 "/>
<path fill-rule="evenodd" fill="rgb(100%, 18.406677%, 0%)" fill-opacity="1" d="M 927.746094 1253.566406 C 927.746094 1253.566406 773.023438 1182.484375 746.84375 1171.960938 C 720.652344 1161.441406 601.042969 1109.289062 485.117188 1078.289062 C 485.117188 1078.289062 882.386719 1253.746094 927.746094 1253.566406 "/>
<path fill-rule="evenodd" fill="rgb(100%, 18.406677%, 0%)" fill-opacity="1" d="M 1713.308594 696.359375 C 1713.308594 696.359375 1592.320312 653.160156 1571.941406 646.96875 C 1551.570312 640.800781 1458.21875 609.5 1369.03125 593.839844 C 1369.03125 593.839844 1679.21875 699.5 1713.308594 696.359375 "/>
<path fill-rule="evenodd" fill="rgb(100%, 18.406677%, 0%)" fill-opacity="1" d="M 2157.070312 1037.988281 C 2152.679688 1036.589844 2149.128906 1035.421875 2146.578125 1034.53125 C 2113.359375 1022.929688 1957.621094 974.140625 1825.800781 906.738281 C 1825.800781 906.738281 2002.058594 960.941406 2157.070312 1013.921875 L 2157.070312 1037.988281 "/>
<path fill-rule="evenodd" fill="rgb(100%, 18.406677%, 0%)" fill-opacity="1" d="M 0 1481.855469 C 4.550781 1483.203125 8.214844 1484.335938 10.84375 1485.199219 C 45.214844 1496.476562 206.3125 1543.5625 342.675781 1610.40625 C 342.675781 1610.40625 160.347656 1558.175781 0 1506.746094 L 0 1481.855469 "/>
<path fill-rule="evenodd" fill="rgb(100%, 18.406677%, 0%)" fill-opacity="1" d="M 0 1513.992188 C 2.273438 1514.667969 4.109375 1515.234375 5.425781 1515.667969 C 22.601562 1521.300781 103.152344 1544.84375 171.34375 1578.265625 C 171.34375 1578.265625 80.175781 1552.152344 0 1526.4375 L 0 1513.992188 "/>
<path fill-rule="evenodd" fill="rgb(100%, 18.406677%, 0%)" fill-opacity="1" d="M 0 119.359375 C 2.980469 120.25 5.394531 120.988281 7.113281 121.550781 C 29.667969 128.949219 135.390625 159.851562 224.886719 203.71875 C 224.886719 203.71875 105.230469 169.449219 0 135.679688 L 0 119.359375 "/>
<path fill-rule="evenodd" fill="rgb(100%, 18.406677%, 0%)" fill-opacity="1" d="M 547.421875 1960.023438 C 547.421875 1960.023438 427.726562 1905.03125 407.472656 1896.890625 C 387.214844 1888.753906 294.675781 1848.40625 204.988281 1824.414062 C 204.988281 1824.414062 512.328125 1960.164062 547.421875 1960.023438 "/>
<path fill-rule="evenodd" fill="rgb(100%, 18.406677%, 0%)" fill-opacity="1" d="M 882.984375 1948.871094 C 882.984375 1948.871094 763.289062 1893.886719 743.03125 1885.738281 C 722.777344 1877.601562 630.242188 1837.265625 540.558594 1813.269531 C 540.558594 1813.269531 847.890625 1949.011719 882.984375 1948.871094 "/>
<path fill-rule="evenodd" fill="rgb(100%, 18.406677%, 0%)" fill-opacity="1" d="M 1013.121094 1691.511719 C 1013.121094 1691.511719 850.695312 1616.878906 823.199219 1605.835938 C 795.710938 1594.792969 670.140625 1540.042969 548.421875 1507.484375 C 548.421875 1507.484375 965.496094 1691.703125 1013.121094 1691.511719 "/>
<path fill-rule="evenodd" fill="rgb(100%, 18.406677%, 0%)" fill-opacity="1" d="M 1550.710938 1378.246094 C 1550.710938 1378.246094 1400.238281 1328.195312 1374.808594 1321.164062 C 1349.371094 1314.132812 1233.089844 1278.121094 1120.738281 1261.921875 C 1120.738281 1261.921875 1506.96875 1383.6875 1550.710938 1378.246094 "/>
<path fill-rule="evenodd" fill="rgb(100%, 18.406677%, 0%)" fill-opacity="1" d="M 0 163.230469 C 0 163.230469 256.71875 256.230469 309.714844 265.71875 C 309.714844 265.71875 193.460938 206.410156 171.792969 197.980469 C 171.792969 197.980469 301.988281 241.179688 339.320312 249.609375 C 339.320312 249.609375 300.757812 229.441406 275.890625 208.789062 C 275.890625 208.789062 769.652344 382.648438 810.597656 391.078125 C 810.597656 391.078125 654.992188 364.101562 624.019531 360.730469 L 944.648438 489.949219 L 504.796875 352.300781 C 504.796875 352.300781 582.558594 390.351562 624.777344 410.691406 L 360.285156 323.390625 C 360.285156 323.390625 403.320312 344.578125 447.335938 368.929688 C 447.335938 368.929688 180.855469 270.410156 129.066406 247.519531 C 77.285156 224.648438 43.566406 213.800781 43.566406 213.800781 C 43.566406 213.800781 165.199219 287.269531 195.300781 294.488281 C 195.300781 294.488281 105.546875 275.390625 69.640625 267.351562 C 69.640625 267.351562 226.34375 339.511719 276.914062 351.558594 C 276.914062 351.558594 52.121094 287.238281 26.90625 281.351562 L 431.339844 437.800781 L 146.300781 347.789062 L 546.539062 551.671875 L 56.816406 345.070312 C 56.816406 345.070312 120.636719 387.21875 164.359375 410.648438 C 164.359375 410.648438 43.90625 356.660156 0 337.019531 L 0 227.050781 C 0 227.050781 34.128906 242.46875 43.375 249.398438 C 43.375 249.398438 20.597656 224.738281 0 211.640625 L 0 180.039062 C 0 180.039062 161.296875 238.609375 196.75 254.800781 C 196.75 254.800781 77.503906 199.359375 0 175.289062 L 0 163.230469 "/>
<path fill-rule="evenodd" fill="rgb(100%, 18.406677%, 0%)" fill-opacity="1" d="M 2157.070312 577.300781 C 2157.070312 577.300781 1996.410156 545.660156 1981.960938 536.03125 L 2119.480469 595.800781 L 1572.820312 414.660156 C 1572.820312 414.660156 2007.328125 589.820312 2067.238281 613.390625 C 2067.238281 613.390625 1920.699219 572.070312 1779.320312 528.699219 C 1779.320312 528.699219 2015.808594 630.738281 2157.070312 677.410156 L 2157.070312 577.300781 "/>
<path fill-rule="evenodd" fill="rgb(100%, 18.406677%, 0%)" fill-opacity="1" d="M 1582.878906 766.851562 L 2157.070312 925.539062 L 2157 889.898438 C 2157 889.898438 1742.46875 777.351562 1674.390625 741.859375 C 1674.390625 741.859375 1740.871094 782.210938 1768.421875 795.109375 C 1768.421875 795.109375 1733.851562 783.910156 1680.578125 766.5 L 1022.230469 512.839844 C 1080.230469 541.53125 1166.601562 584.089844 1240.519531 619.800781 C 1201.390625 606.238281 1168.398438 594.519531 1145.78125 585.929688 C 1136.578125 582.359375 1131.570312 580.398438 1131.570312 580.398438 C 1135.699219 582.058594 1140.460938 583.921875 1145.78125 585.929688 C 1167.449219 594.351562 1212.339844 611.761719 1269.320312 633.660156 C 1318.308594 657.160156 1358.511719 675.941406 1375.839844 682.859375 C 1375.839844 682.859375 1291.539062 655.148438 1130.519531 608.628906 C 1130.519531 608.628906 1315.898438 710.710938 1338.140625 724.789062 C 1338.140625 724.789062 574.992188 503.691406 503.332031 474.011719 L 1196.488281 759.429688 C 1196.488281 759.429688 1149.449219 723.941406 1126.378906 702.921875 C 1126.378906 702.921875 1282.121094 751.148438 1447.058594 815.199219 C 1612.011719 879.261719 1944.289062 992.988281 1991.929688 1006.128906 C 1991.929688 1006.128906 1668.671875 856.851562 1609.660156 821.558594 C 1609.660156 821.558594 1675.980469 833.25 1722.691406 840.480469 C 1722.691406 840.480469 1650.761719 804.03125 1582.878906 766.851562 "/>
<path fill-rule="evenodd" fill="rgb(100%, 18.406677%, 0%)" fill-opacity="1" d="M 0 683.238281 C 0 683.238281 389.921875 848.621094 532.84375 875.160156 C 532.84375 875.160156 369.507812 809.828125 271.496094 764.910156 C 271.496094 764.910156 618.59375 873.121094 749.265625 913.960938 C 749.265625 913.960938 636.96875 862.910156 596.132812 842.5 C 596.132812 842.5 845.226562 916 896.265625 934.371094 C 947.3125 952.75 1195.898438 1054.320312 1259.199219 1085.191406 C 1259.199219 1085.191406 1010.601562 1014 922.8125 979.289062 C 922.8125 979.289062 992.226562 1032.371094 1045.308594 1052.800781 C 1045.308594 1052.800781 861.5625 985.421875 822.765625 965 C 822.765625 965 863.601562 1001.75 904.4375 1026.25 C 904.4375 1026.25 452.445312 885.371094 384.429688 852.699219 C 384.429688 852.699219 553.257812 946.621094 612.46875 965 C 612.46875 965 422.585938 899.660156 359.296875 875.160156 C 359.296875 875.160156 756.214844 1075.359375 984.0625 1163.046875 L 108.160156 862.910156 C 108.160156 862.910156 422.585938 1007.871094 485.882812 1028.300781 L 95.910156 895.578125 C 95.910156 895.578125 167.371094 944.578125 206.160156 973.160156 C 206.160156 973.160156 53.136719 897.621094 0 885.371094 L 0 791.449219 C 0 791.449219 259.246094 864.949219 314.371094 895.578125 C 314.371094 895.578125 159.308594 813.910156 0 762.859375 L 0 683.238281 "/>
<path fill-rule="evenodd" fill="rgb(100%, 18.406677%, 0%)" fill-opacity="1" d="M 0 1769.121094 C 0 1769.121094 77.402344 1797.542969 121.761719 1808.511719 C 121.761719 1808.511719 61.566406 1770.996094 44.140625 1757.105469 C 44.140625 1757.105469 535.199219 1898.828125 641.328125 1948.871094 C 641.328125 1948.871094 527.707031 1884.988281 262.742188 1805.539062 C 112.257812 1760.417969 52.054688 1724.09375 52.054688 1724.09375 C 52.054688 1724.09375 237.394531 1778.378906 292.835938 1791.46875 C 292.835938 1791.46875 177.199219 1740.886719 132.84375 1722.386719 C 88.488281 1703.894531 0 1674.078125 0 1674.078125 L 0 1769.121094 "/>
<path fill-rule="evenodd" fill="rgb(100%, 18.406677%, 0%)" fill-opacity="1" d="M 1198.960938 1906.136719 C 1198.960938 1906.136719 1329.460938 1984.804688 1371.449219 2003.4375 C 1371.449219 2003.4375 1316.238281 1992.484375 1236.398438 1979.171875 C 1426.929688 2054.367188 1508.558594 2094.304688 1738.339844 2157.578125 L 1827.890625 2157.578125 C 1827.890625 2157.578125 1305.878906 1959.730469 1198.960938 1906.136719 "/>
<path fill-rule="evenodd" fill="rgb(100%, 18.406677%, 0%)" fill-opacity="1" d="M 1961.121094 2157.578125 C 1961.121094 2157.578125 1549.179688 2015.855469 1470.300781 1983.621094 C 1470.300781 1983.621094 1666.339844 2079.011719 1897.648438 2157.578125 L 1961.121094 2157.578125 "/>
<path fill-rule="evenodd" fill="rgb(100%, 18.406677%, 0%)" fill-opacity="1" d="M 1444.359375 2157.578125 C 1444.359375 2157.578125 742.058594 1915.964844 607.582031 1861.007812 C 607.582031 1861.007812 941.785156 2023.628906 1336.148438 2157.578125 L 1444.359375 2157.578125 "/>
<path fill-rule="evenodd" fill="rgb(100%, 18.406677%, 0%)" fill-opacity="1" d="M 1252.941406 2157.578125 C 1252.941406 2157.578125 832.234375 1991.039062 703.992188 1937.410156 C 703.992188 1937.410156 861.730469 2018.726562 892.828125 2035.335938 L 413.265625 1882.09375 L 971.488281 2100.398438 C 971.488281 2100.398438 754.398438 2047.210938 671.488281 2035.335938 L 1076.851562 2160 L 1252.941406 2157.578125 "/>
<path fill-rule="evenodd" fill="rgb(100%, 18.406677%, 0%)" fill-opacity="1" d="M 826.519531 2157.578125 C 826.519531 2157.578125 690.527344 2114.113281 583.890625 2075.832031 C 583.890625 2075.832031 707.953125 2095.046875 791.933594 2111.367188 C 791.933594 2111.367188 217.378906 1946.53125 111.683594 1925.785156 C 111.683594 1925.785156 233.523438 1977.757812 375.273438 2018.832031 C 375.273438 2018.832031 96.769531 1964.730469 0 1910.8125 L 0 1956.574219 C 0 1956.574219 143.3125 2026.738281 258.765625 2080.617188 C 258.765625 2080.617188 180.828125 2023.019531 158.535156 2011.867188 C 158.535156 2011.867188 315.996094 2072.226562 411.890625 2099.273438 C 411.890625 2099.273438 353.777344 2062.039062 264.515625 2023.019531 C 264.515625 2023.019531 392.691406 2061.175781 455.414062 2096.453125 C 455.414062 2096.453125 398.265625 2054.617188 353.671875 2035.335938 C 353.671875 2035.335938 517.640625 2082.082031 580.609375 2120.152344 C 580.609375 2120.152344 508.609375 2103.402344 483.460938 2099.207031 C 483.460938 2099.207031 555.910156 2131.964844 577.914062 2146.558594 C 577.914062 2146.558594 481.261719 2119.164062 434.128906 2109.433594 C 434.128906 2109.433594 491.15625 2138.820312 529.039062 2157.578125 L 826.519531 2157.578125 "/>
<path fill-rule="evenodd" fill="rgb(100%, 18.406677%, 0%)" fill-opacity="1" d="M 0 2010.46875 C 0 2010.46875 180.273438 2103.019531 241.605469 2120.859375 C 241.605469 2120.859375 171.359375 2109.960938 144.59375 2096.453125 C 144.59375 2096.453125 231.570312 2138.527344 271.714844 2157.578125 L 193.652344 2157.578125 C 193.652344 2157.578125 85.492188 2088.355469 64.3125 2082.304688 C 64.3125 2082.304688 106.679688 2088.773438 128.984375 2096.453125 C 128.984375 2096.453125 28.238281 2043.46875 0 2035.335938 L 0 2010.46875 "/>
<path fill-rule="evenodd" fill="rgb(100%, 18.406677%, 0%)" fill-opacity="1" d="M 1086.078125 1118.25 C 1086.078125 1118.25 1221.449219 1161.339844 1253.878906 1180.671875 C 1253.878906 1180.671875 1232.578125 1161.324219 1219.101562 1147.828125 C 1219.101562 1147.828125 1402.078125 1197.433594 1551.101562 1260.273438 C 1551.101562 1260.273438 1330.089844 1158.03125 1273 1146.941406 C 1273 1146.941406 1504.808594 1210.890625 1504.808594 1211.257812 C 1504.808594 1211.257812 1242.179688 1115.441406 1188.238281 1087.511719 C 1188.238281 1087.511719 1228.53125 1124.269531 1243.550781 1128.410156 C 1243.550781 1128.410156 1126.890625 1087.71875 1095.738281 1073.890625 C 1095.738281 1073.890625 1166.738281 1111.480469 1201.691406 1127.96875 C 1201.691406 1127.96875 982.566406 1081.441406 923.246094 1059.269531 C 923.246094 1059.269531 1040.101562 1106.179688 1086.078125 1118.25 "/>
<path fill-rule="evenodd" fill="rgb(100%, 18.406677%, 0%)" fill-opacity="1" d="M 2157.070312 1658.066406 C 2157.070312 1658.066406 1742.410156 1511.773438 1574.640625 1460.144531 C 1574.640625 1460.144531 1834.640625 1573.363281 2107.140625 1658.066406 C 2107.140625 1658.066406 1946.320312 1629.054688 1930.890625 1623.851562 C 1930.890625 1623.851562 2111.28125 1700.183594 2157.070312 1729.675781 L 2157.070312 1711.152344 C 2157.070312 1711.152344 2101.171875 1676.730469 2080.179688 1672.289062 C 2080.179688 1672.289062 2121.621094 1673.394531 2157.070312 1693.382812 L 2157.070312 1658.066406 "/>
<path fill-rule="evenodd" fill="rgb(100%, 18.406677%, 0%)" fill-opacity="1" d="M 2157.070312 856.21875 L 1576.949219 678.121094 C 1576.949219 678.121094 1748.78125 728.609375 1969.058594 772.320312 C 1969.058594 772.320312 1945.191406 754.929688 1797.320312 677.410156 L 2157.070312 814.019531 L 2157.070312 856.21875 "/>
<path fill-rule="evenodd" fill="rgb(100%, 18.406677%, 0%)" fill-opacity="1" d="M 2157.070312 497.820312 L 1748.289062 337.101562 C 1748.289062 337.101562 1885.671875 376.859375 2068.339844 424.570312 C 2068.339844 424.570312 1965.648438 387.359375 1873.75 345.738281 L 2157.070312 440.03125 L 2157.070312 497.820312 "/>
<path fill-rule="evenodd" fill="rgb(100%, 18.406677%, 0%)" fill-opacity="1" d="M 0 522.519531 L 408.777344 683.238281 C 408.777344 683.238281 271.40625 643.480469 88.730469 595.769531 C 88.730469 595.769531 191.414062 632.980469 283.316406 674.589844 L 0 580.308594 L 0 522.519531 "/>
<path fill-rule="evenodd" fill="rgb(100%, 18.406677%, 0%)" fill-opacity="1" d="M 0 1218.214844 C 0 1218.214844 173.265625 1280.085938 209.847656 1290.539062 C 209.847656 1290.539062 121.085938 1271.90625 104.882812 1274.402344 L 583.132812 1427.285156 C 583.132812 1427.285156 464.085938 1358.304688 400.058594 1330.867188 C 400.058594 1330.867188 496.890625 1358.246094 511.265625 1363.367188 C 511.265625 1363.367188 362.300781 1294.003906 286.511719 1258.722656 C 286.511719 1258.722656 466.832031 1295.308594 509.957031 1317.519531 C 509.957031 1317.519531 442.007812 1275.710938 349.234375 1233.890625 C 256.460938 1192.082031 33.628906 1082.308594 0 1066.628906 L 0 1032.328125 C 0 1032.328125 184.15625 1091.871094 257.65625 1116.371094 C 257.65625 1116.371094 194.261719 1083.199219 126.792969 1033.980469 C 126.792969 1033.980469 650.867188 1268.886719 743.671875 1312.875 L 276.691406 1146.691406 C 276.691406 1146.691406 410.125 1214.574219 471.085938 1249.570312 C 471.085938 1249.570312 212.371094 1141.671875 157.1875 1120.128906 C 102.003906 1098.578125 88.414062 1093.359375 88.414062 1093.359375 C 88.414062 1093.359375 379.285156 1237.097656 477.292969 1274.992188 C 575.292969 1312.882812 1127.421875 1572.40625 1127.421875 1572.40625 C 1127.421875 1572.40625 879.753906 1481.445312 779.140625 1438.328125 L 1437.269531 1734.5625 C 1437.269531 1734.5625 1150.640625 1619.699219 834.015625 1482.753906 C 590.972656 1377.628906 513.878906 1344.964844 513.878906 1344.964844 C 513.878906 1344.964844 764.644531 1473.414062 871.773438 1522.664062 C 871.773438 1522.664062 651.082031 1444.273438 602.730469 1418.140625 C 602.730469 1418.140625 669.824219 1468.9375 701.023438 1490.875 L 175.097656 1308.539062 C 175.097656 1308.539062 303.496094 1364.5625 347.925781 1388.082031 C 347.925781 1388.082031 214.726562 1341.046875 157.1875 1326.675781 C 99.648438 1312.292969 76.128906 1305.761719 76.128906 1305.761719 C 76.128906 1305.761719 571.625 1542.621094 706.347656 1596.457031 L 734.710938 1606.609375 C 729.242188 1605.238281 719.515625 1601.726562 706.347656 1596.457031 L 61.757812 1365.871094 C 61.757812 1365.871094 252.691406 1459.710938 311.976562 1488.761719 C 311.976562 1488.761719 145.984375 1441.21875 0 1394.390625 L 0 1371.730469 C 4.136719 1372.960938 7.480469 1373.992188 9.878906 1374.773438 C 18.027344 1377.453125 34.011719 1382.339844 55.398438 1389.1875 C 31.316406 1378.136719 10.511719 1363.472656 0 1359.386719 L 0 1332.007812 L 128.875 1369.300781 L 15.9375 1313.898438 L 40.4375 1314.964844 L 0 1289.390625 L 0 1218.214844 "/>
</svg>
